<svg width="810" height="188" viewBox="0 0 810 188" fill="none" xmlns="http://www.w3.org/2000/svg">
<path d="M12.24 151V29.28H55.08C60.86 29.28 66.2433 30.2433 71.23 32.17C76.33 33.9833 80.75 36.59 84.49 39.99C88.23 43.39 91.1767 47.47 93.33 52.23C95.4833 56.8767 96.56 62.0333 96.56 67.7C96.56 73.48 95.4833 78.75 93.33 83.51C91.1767 88.1567 88.23 92.18 84.49 95.58C80.75 98.98 76.33 101.643 71.23 103.57C66.2433 105.383 60.86 106.29 55.08 106.29H35.19V151H12.24ZM55.42 84.53C61.4267 84.53 65.96 82.83 69.02 79.43C72.08 76.03 73.61 72.12 73.61 67.7C73.61 65.5467 73.2133 63.45 72.42 61.41C71.74 59.37 70.6067 57.6133 69.02 56.14C67.5467 54.5533 65.6767 53.3067 63.41 52.4C61.1433 51.4933 58.48 51.04 55.42 51.04H35.19V84.53H55.42ZM110.125 67.7H131.035V79.26H132.395C133.415 77.22 134.775 75.35 136.475 73.65C138.175 71.95 140.045 70.4767 142.085 69.23C144.239 67.9833 146.505 67.02 148.885 66.34C151.379 65.66 153.815 65.32 156.195 65.32C159.142 65.32 161.635 65.6033 163.675 66.17C165.829 66.7367 167.642 67.4733 169.115 68.38L163.165 88.61C161.805 87.93 160.275 87.42 158.575 87.08C156.989 86.6267 155.005 86.4 152.625 86.4C149.565 86.4 146.789 87.0233 144.295 88.27C141.802 89.4033 139.649 91.0467 137.835 93.2C136.135 95.3533 134.775 97.9033 133.755 100.85C132.849 103.683 132.395 106.8 132.395 110.2V151H110.125V67.7ZM213.648 64.98C220.108 64.98 226.001 66.1133 231.328 68.38C236.768 70.5333 241.414 73.5933 245.268 77.56C249.234 81.4133 252.294 86.06 254.447 91.5C256.714 96.94 257.848 102.89 257.848 109.35C257.848 115.81 256.714 121.76 254.447 127.2C252.294 132.64 249.234 137.343 245.268 141.31C241.414 145.163 236.768 148.223 231.328 150.49C226.001 152.643 220.108 153.72 213.648 153.72C207.188 153.72 201.238 152.643 195.798 150.49C190.471 148.223 185.824 145.163 181.858 141.31C178.004 137.343 174.944 132.64 172.678 127.2C170.524 121.76 169.448 115.81 169.448 109.35C169.448 102.89 170.524 96.94 172.678 91.5C174.944 86.06 178.004 81.4133 181.858 77.56C185.824 73.5933 190.471 70.5333 195.798 68.38C201.238 66.1133 207.188 64.98 213.648 64.98ZM213.648 133.15C216.481 133.15 219.201 132.64 221.808 131.62C224.528 130.487 226.908 128.9 228.948 126.86C230.988 124.82 232.574 122.327 233.708 119.38C234.954 116.433 235.578 113.09 235.578 109.35C235.578 105.61 234.954 102.267 233.708 99.32C232.574 96.3733 230.988 93.88 228.948 91.84C226.908 89.8 224.528 88.27 221.808 87.25C219.201 86.1167 216.481 85.55 213.648 85.55C210.701 85.55 207.924 86.1167 205.318 87.25C202.711 88.27 200.388 89.8 198.348 91.84C196.308 93.88 194.664 96.3733 193.418 99.32C192.284 102.267 191.718 105.61 191.718 109.35C191.718 113.09 192.284 116.433 193.418 119.38C194.664 122.327 196.308 124.82 198.348 126.86C200.388 128.9 202.711 130.487 205.318 131.62C207.924 132.64 210.701 133.15 213.648 133.15ZM271.477 67.7H292.387V77.73H293.747C295.787 74.2167 298.96 71.2133 303.267 68.72C307.573 66.2267 312.9 64.98 319.247 64.98C324.573 64.98 329.617 66.1133 334.377 68.38C339.25 70.5333 343.5 73.5933 347.127 77.56C350.867 81.4133 353.813 86.06 355.967 91.5C358.12 96.94 359.197 102.89 359.197 109.35C359.197 115.81 358.12 121.76 355.967 127.2C353.813 132.64 350.867 137.343 347.127 141.31C343.5 145.163 339.25 148.223 334.377 150.49C329.617 152.643 324.573 153.72 319.247 153.72C312.9 153.72 307.573 152.473 303.267 149.98C298.96 147.487 295.787 144.483 293.747 140.97H292.387L293.747 152.87V187.72H271.477V67.7ZM314.657 133.15C317.603 133.15 320.38 132.583 322.987 131.45C325.707 130.317 328.087 128.73 330.127 126.69C332.167 124.65 333.81 122.157 335.057 119.21C336.303 116.263 336.927 112.977 336.927 109.35C336.927 105.723 336.303 102.437 335.057 99.49C333.81 96.5433 332.167 94.05 330.127 92.01C328.087 89.97 325.707 88.3833 322.987 87.25C320.38 86.1167 317.603 85.55 314.657 85.55C311.71 85.55 308.877 86.1167 306.157 87.25C303.55 88.27 301.227 89.8 299.187 91.84C297.147 93.88 295.503 96.3733 294.257 99.32C293.01 102.267 292.387 105.61 292.387 109.35C292.387 113.09 293.01 116.433 294.257 119.38C295.503 122.327 297.147 124.82 299.187 126.86C301.227 128.9 303.55 130.487 306.157 131.62C308.877 132.64 311.71 133.15 314.657 133.15Z" fill="#0B3D65"/>
<path d="M743 147H702C689.85 147 680 137.15 680 125V72.9002C680 67.5107 682.175 62.3493 686.033 58.5855L740.905 5.04429C742.07 3.90723 743.93 3.90723 745.095 5.04429L799.967 58.5855C803.825 62.3493 806 67.5107 806 72.9002V125C806 137.15 796.15 147 784 147H764.284" stroke="#0B3D65" stroke-width="8" stroke-linecap="round"/>
<path d="M726.381 129.395C721.938 125.714 703.838 109.664 703.838 94.019C703.838 72.4486 721.371 54.9624 743 54.9624C764.629 54.9624 782.162 72.4486 782.162 94.019C782.162 105.366 777.735 115.415 769.562 122.547" stroke="#0B3D65" stroke-width="8" stroke-linecap="round"/>
<path d="M770.413 121.697L743.17 146.999" stroke="#0B3D65" stroke-width="8" stroke-linecap="round"/>
<path d="M757.73 92.3208C757.73 100.418 751.145 107 743 107C734.855 107 728.27 100.418 728.27 92.3208C728.27 84.2239 734.855 77.6416 743 77.6416C751.145 77.6416 757.73 84.2239 757.73 92.3208Z" stroke="#04A8E3" stroke-width="8"/>
<path d="M367.742 79.1875L369.289 69.1328C369.805 65.6953 370.721 62.888 372.039 60.7109C373.357 58.5339 375.677 56.1562 379 53.5781C382.266 50.9427 387.365 47.2188 394.297 42.4062C410.969 30.776 423.945 24.9609 433.227 24.9609C436.034 24.9609 438.01 25.5339 439.156 26.6797C440.359 27.8255 440.961 29.8307 440.961 32.6953C440.961 34.7005 440.188 37.4505 438.641 40.9453C437.151 44.4401 434.372 49.9688 430.305 57.5312C426.294 65.0938 422.742 71.8828 419.648 77.8984C417.128 82.8255 414.263 88.0677 411.055 93.625C407.846 99.125 405.698 102.906 404.609 104.969C403.521 107.031 402.977 108.578 402.977 109.609C402.977 110.755 403.349 111.758 404.094 112.617C404.839 113.419 405.755 113.82 406.844 113.82C408.333 113.82 409.995 113.018 411.828 111.414C413.719 109.81 417.385 106.344 422.828 101.016C425.464 98.3802 428.271 95.2578 431.25 91.6484C434.286 88.0391 438.039 83.3984 442.508 77.7266C446.977 72.0547 451.102 66.7839 454.883 61.9141C457.232 58.8776 459.352 56.1562 461.242 53.75C463.133 51.3438 464.737 49.5104 466.055 48.25C467.43 46.9323 468.518 46.2734 469.32 46.2734C470.008 46.2734 471.125 47.1328 472.672 48.8516L474.734 51.5156C476.281 53.6927 477.055 55.2682 477.055 56.2422C477.055 57.388 474.906 61.599 470.609 68.875C466.37 76.0938 462.76 82.3672 459.781 87.6953C456.802 92.9661 452.935 100.615 448.18 110.641C443.482 120.609 438.956 131.695 434.602 143.898C446.232 135.133 454.195 129.289 458.492 126.367C462.789 123.388 465.911 121.898 467.859 121.898C469.177 121.898 469.836 122.443 469.836 123.531C469.836 124.734 469.206 126.31 467.945 128.258C466.685 130.148 464.995 132.268 462.875 134.617C460.755 136.909 457.547 140.232 453.25 144.586C449.01 148.997 444.37 153.753 439.328 158.852C436.234 162.003 433.227 165.669 430.305 169.852C427.383 174.034 425.12 177.271 423.516 179.562C421.911 181.854 420.451 183.172 419.133 183.516C417.185 184.089 415.409 183.659 413.805 182.227C412.201 180.794 411.398 178.531 411.398 175.438C411.398 173.26 412.487 168.763 414.664 161.945C416.898 155.128 420.25 146.648 424.719 136.508C427.354 130.435 430.047 124.706 432.797 119.32C435.547 113.878 438.698 107.919 442.25 101.445C445.859 94.9141 449.383 88.7266 452.82 82.8828C456.258 77.0391 459.18 72.0547 461.586 67.9297C455.857 75.4349 450.156 82.7396 444.484 89.8438C438.87 96.8906 432.568 104.339 425.578 112.188C418.646 119.979 411.628 127.284 404.523 134.102C401.43 137.023 399.195 139 397.82 140.031C396.503 141.12 394.755 141.664 392.578 141.664C391.203 141.664 389.857 141.177 388.539 140.203C387.279 139.286 386.219 138.083 385.359 136.594C384.5 135.047 384.07 133.557 384.07 132.125C384.07 129.719 384.414 127.599 385.102 125.766C385.846 123.932 387.107 121.182 388.883 117.516C396.674 101.76 402.346 90.9609 405.898 85.1172C418.617 64.7214 424.977 53.2917 424.977 50.8281C424.977 50.026 424.69 49.3958 424.117 48.9375C423.544 48.4219 422.828 48.1641 421.969 48.1641C420.365 48.1641 418.445 48.8802 416.211 50.3125C413.977 51.6875 411.169 53.75 407.789 56.5C404.409 59.25 400.284 62.5443 395.414 66.3828C390.602 70.2214 385.531 73.888 380.203 77.3828C378.083 78.7578 375.706 80.3906 373.07 82.2812C370.378 84.1719 368.831 85.1172 368.43 85.1172C367.628 85.1172 367.227 84.7161 367.227 83.9141C367.227 83.1693 367.398 81.5938 367.742 79.1875ZM478.773 96.5469C487.482 88.6406 495.932 82.7682 504.125 78.9297C512.318 75.0911 518.648 73.1719 523.117 73.1719C524.32 73.1719 525.438 73.6875 526.469 74.7188C527.5 75.6927 528.302 76.8385 528.875 78.1562C529.505 79.474 529.82 80.4479 529.82 81.0781C529.82 82.1094 529.419 82.8828 528.617 83.3984C527.815 83.8568 526.411 84.4297 524.406 85.1172C524.807 86.0339 525.323 87.2083 525.953 88.6406C526.583 90.0729 527.07 91.2474 527.414 92.1641C527.758 93.0234 527.93 93.7969 527.93 94.4844C527.93 95.8594 526.526 98.4375 523.719 102.219C520.969 105.943 519.021 108.693 517.875 110.469C516.786 112.245 516.242 114.422 516.242 117C516.242 121.24 518.19 123.359 522.086 123.359C526.096 123.359 532.37 119.607 540.906 112.102V117.344C526.411 133.443 516.042 141.492 509.797 141.492C507.562 141.492 505.958 140.747 504.984 139.258C504.068 137.826 503.609 135.677 503.609 132.812C503.609 128.286 505.242 121.727 508.508 113.133C500.143 122.414 493.927 129.031 489.859 132.984C485.792 136.88 482.44 138.828 479.805 138.828C478.544 138.828 476.969 137.74 475.078 135.562C473.188 133.385 471.497 130.578 470.008 127.141C468.576 123.646 467.859 120.036 467.859 116.312C467.859 113.62 468.117 111.385 468.633 109.609C469.148 107.776 470.151 105.914 471.641 104.023C473.13 102.133 475.508 99.6406 478.773 96.5469ZM519.938 87.0938C505.042 93.9115 494.414 99.6979 488.055 104.453C481.753 109.208 478.602 114.107 478.602 119.148C478.602 120.982 478.917 122.5 479.547 123.703C480.177 124.849 481.036 125.422 482.125 125.422C482.755 125.422 483.872 125.021 485.477 124.219C491.492 120.667 496.992 116.055 501.977 110.383C506.961 104.654 512.948 96.8906 519.938 87.0938ZM550.273 96.5469C558.982 88.6406 567.432 82.7682 575.625 78.9297C583.818 75.0911 590.148 73.1719 594.617 73.1719C595.82 73.1719 596.938 73.6875 597.969 74.7188C599 75.6927 599.802 76.8385 600.375 78.1562C601.005 79.474 601.32 80.4479 601.32 81.0781C601.32 82.1094 600.919 82.8828 600.117 83.3984C599.315 83.8568 597.911 84.4297 595.906 85.1172C596.307 86.0339 596.823 87.2083 597.453 88.6406C598.083 90.0729 598.57 91.2474 598.914 92.1641C599.258 93.0234 599.43 93.7969 599.43 94.4844C599.43 95.8594 598.026 98.4375 595.219 102.219C592.469 105.943 590.521 108.693 589.375 110.469C588.286 112.245 587.742 114.422 587.742 117C587.742 121.24 589.69 123.359 593.586 123.359C597.596 123.359 603.87 119.607 612.406 112.102V117.344C597.911 133.443 587.542 141.492 581.297 141.492C579.062 141.492 577.458 140.747 576.484 139.258C575.568 137.826 575.109 135.677 575.109 132.812C575.109 128.286 576.742 121.727 580.008 113.133C571.643 122.414 565.427 129.031 561.359 132.984C557.292 136.88 553.94 138.828 551.305 138.828C550.044 138.828 548.469 137.74 546.578 135.562C544.688 133.385 542.997 130.578 541.508 127.141C540.076 123.646 539.359 120.036 539.359 116.312C539.359 113.62 539.617 111.385 540.133 109.609C540.648 107.776 541.651 105.914 543.141 104.023C544.63 102.133 547.008 99.6406 550.273 96.5469ZM591.438 87.0938C576.542 93.9115 565.914 99.6979 559.555 104.453C553.253 109.208 550.102 114.107 550.102 119.148C550.102 120.982 550.417 122.5 551.047 123.703C551.677 124.849 552.536 125.422 553.625 125.422C554.255 125.422 555.372 125.021 556.977 124.219C562.992 120.667 568.492 116.055 573.477 110.383C578.461 104.654 584.448 96.8906 591.438 87.0938ZM610.859 118.547V112.961C613.953 109.294 616.302 106.172 617.906 103.594C616.073 102.964 614.727 102.19 613.867 101.273C613.065 100.357 612.664 98.9818 612.664 97.1484C612.664 95.0859 613.523 92.4792 615.242 89.3281C616.961 86.1771 619.081 83.2266 621.602 80.4766C624.122 77.7266 626.414 75.9505 628.477 75.1484C629.279 74.7474 630.052 74.5469 630.797 74.5469C631.943 74.5469 632.516 75.0911 632.516 76.1797C632.516 77.1536 631.628 79.1302 629.852 82.1094C641.654 80.276 649.102 79.3594 652.195 79.3594C653.398 79.3594 654.229 79.474 654.688 79.7031C655.661 80.2188 656.464 81.4219 657.094 83.3125C657.724 85.2031 658.039 87.0938 658.039 88.9844C658.039 90.1875 657.495 91.5052 656.406 92.9375C655.375 94.3125 653.57 96.3464 650.992 99.0391C647.956 102.305 645.406 105.857 643.344 109.695C641.281 113.534 640.25 116.427 640.25 118.375C640.25 121.068 641.911 122.414 645.234 122.414C648.729 122.414 654.802 118.862 663.453 111.758V117.516C658.698 122.5 654.773 126.424 651.68 129.289C648.586 132.154 645.721 134.445 643.086 136.164C640.451 137.826 638.102 138.656 636.039 138.656C633.633 138.656 631.628 137.568 630.023 135.391C628.419 133.156 627.617 129.948 627.617 125.766C627.617 123.302 628.247 120.495 629.508 117.344C630.768 114.193 632.602 110.784 635.008 107.117C637.471 103.393 640.221 99.6979 643.258 96.0312C641.654 96.375 639.849 96.7474 637.844 97.1484C635.839 97.4922 633.719 97.8646 631.484 98.2656C629.25 98.6667 627.531 98.9818 626.328 99.2109C622.776 106.315 617.62 112.76 610.859 118.547Z" fill="#0936B1"/>
</svg>
