<svg xmlns="http://www.w3.org/2000/svg" viewBox="0 0 180 180">
  <!-- Background with rounded corners for Apple -->
  <rect x="10" y="10" width="160" height="160" rx="40" fill="#1E40AF"/>
  
  <!-- Inner white background -->
  <rect x="20" y="20" width="140" height="140" rx="32" fill="#ffffff"/>
  
  <!-- Map pin shape -->
  <path d="M90 50 C70 50 54 66 54 86 C54 110 90 142 90 142 C90 142 126 110 126 86 C126 66 110 50 90 50" fill="#1E40AF"/>
  
  <!-- Inner circle for faith symbol -->
  <circle cx="90" cy="84" r="22" fill="#ffffff"/>
  
  <!-- Om symbol -->
  <path d="M80 76 Q76 76 76 80 Q76 84 80 84 L86 84 Q90 84 90 88 Q90 92 86 92 L80 92 Q76 92 76 96 Q76 100 80 100 L90 100 L94 104 M90 92 L94 96 L94 100" 
        stroke="#1E40AF" stroke-width="4" fill="none" stroke-linecap="round" stroke-linejoin="round"/>
</svg>