<svg xmlns="http://www.w3.org/2000/svg" viewBox="0 0 100 100">
  <!-- Background circle -->
  <circle cx="50" cy="50" r="48" fill="#1E40AF"/>
  
  <!-- Inner circle -->
  <circle cx="50" cy="50" r="42" fill="#ffffff"/>
  
  <!-- Map pin shape -->
  <path d="M50 25 C38 25 28 35 28 47 C28 60 50 78 50 78 C50 78 72 60 72 47 C72 35 62 25 50 25" fill="#1E40AF"/>
  
  <!-- Inner circle for faith symbol -->
  <circle cx="50" cy="47" r="12" fill="#ffffff"/>
  
  <!-- Om symbol (represents spirituality/faith) -->
  <path d="M45 42 Q43 42 43 44 Q43 46 45 46 L48 46 Q50 46 50 48 Q50 50 48 50 L45 50 Q43 50 43 52 Q43 54 45 54 L50 54 L52 56 M50 50 L52 52 L52 54" 
        stroke="#1E40AF" stroke-width="2.5" fill="none" stroke-linecap="round" stroke-linejoin="round"/>
  
  <!-- Dots around symbol representing diversity of faiths -->
  <circle cx="35" cy="40" r="2" fill="#FF6B35"/>
  <circle cx="65" cy="40" r="2" fill="#27AE60"/>
  <circle cx="35" cy="54" r="2" fill="#9B59B6"/>
  <circle cx="65" cy="54" r="2" fill="#F39C12"/>
</svg>